<?xml version="1.0" encoding="UTF-8" standalone="no" ?>
<!DOCTYPE svg PUBLIC "-//W3C//DTD SVG 1.1//EN" "http://www.w3.org/Graphics/SVG/1.1/DTD/svg11.dtd">
<svg xmlns="http://www.w3.org/2000/svg" xmlns:xlink="http://www.w3.org/1999/xlink" version="1.1" width="485.0999290466308" height="199.54999999999998" xml:space="preserve">
<desc>Created with Fabric.js 1.6.0-rc.1</desc>
<defs></defs>
  <g transform="translate(305.37 93.59) scale(1.33 0.71)">
   <text font-family="ADAMCG PRO" font-size="40" font-weight="bold" style="stroke: none; stroke-width: 1; stroke-dasharray: none; stroke-linecap: butt; stroke-linejoin: miter; stroke-miterlimit: 10; fill: #0066cc; fill-rule: nonzero; opacity: 1;" ><tspan x="-48.68" y="8.98" style="stroke: none; stroke-width: 0; stroke-dasharray: none; stroke-linecap: butt; stroke-linejoin: miter; stroke-miterlimit: 4; fill: #0066cc; fill-rule: ; opacity: 1;">C</tspan><tspan x="-21.61" y="8.98" style="stroke: none; stroke-width: 0; stroke-dasharray: none; stroke-linecap: butt; stroke-linejoin: miter; stroke-miterlimit: 4; fill: #0066cc; fill-rule: ; opacity: 1;">I</tspan><tspan x="-10.83" y="8.98" style="stroke: none; stroke-width: 0; stroke-dasharray: none; stroke-linecap: butt; stroke-linejoin: miter; stroke-miterlimit: 4; fill: #0066cc; fill-rule: ; opacity: 1;">V</tspan><tspan x="17.47" y="8.98" style="stroke: none; stroke-width: 0; stroke-dasharray: none; stroke-linecap: butt; stroke-linejoin: miter; stroke-miterlimit: 4; fill: #0066cc; fill-rule: ; opacity: 1;">I</tspan><tspan x="28.25" y="8.98" style="stroke: none; stroke-width: 0; stroke-dasharray: none; stroke-linecap: butt; stroke-linejoin: miter; stroke-miterlimit: 4; fill: #0066cc; fill-rule: ; opacity: 1;">L</tspan></text>
 </g>
<g style="stroke: none; stroke-width: 1; stroke-dasharray: none; stroke-linecap: butt; stroke-linejoin: miter; stroke-miterlimit: 10; fill: none; fill-rule: nonzero; opacity: 1;" transform="translate(10 10) scale(0.46 0.35)" >
  <path d="M 256 0 c 141.385 0 256 114.615 256 256 S 397.385 512 256 512 C 114.612 512 0 397.385 0 256 S 114.615 0 256 0 z" style="stroke: none; stroke-width: 1; stroke-dasharray: none; stroke-linecap: butt; stroke-linejoin: miter; stroke-miterlimit: 10; fill: #ffffff; fill-rule: nonzero; opacity: 1;" transform=" matrix(1 0 0 1 0 0) " stroke-linecap="round" />
  <path d="M 223.11 380.281 l -9.629 37.805 l -32.36 27.14 v 5.815 h 74.882 h 74.882 v -5.815 l -32.36 -27.14 l -9.629 -37.805 l -32.892 -0.483 L 223.11 380.281 z" style="stroke: none; stroke-width: 1; stroke-dasharray: none; stroke-linecap: butt; stroke-linejoin: miter; stroke-miterlimit: 10; fill: #5e5e5e; fill-rule: nonzero; opacity: 1;" transform=" matrix(1 0 0 1 0 0) " stroke-linecap="round" />
  <path d="M 181.121 445.226 v 5.815 h 74.882 h 74.879 v -5.815 H 181.121 z" style="stroke: none; stroke-width: 1; stroke-dasharray: none; stroke-linecap: butt; stroke-linejoin: miter; stroke-miterlimit: 10; fill: #000009; fill-rule: nonzero; opacity: 1;" transform=" matrix(1 0 0 1 0 0) " stroke-linecap="round" />
  <path d="M 88.928 119.077 h 334.15 c 10.98 0 19.961 8.981 19.961 19.961 v 205.84 H 68.969 v -205.84 c 0 -10.98 8.981 -19.961 19.961 -19.961 H 88.928 z" style="stroke: none; stroke-width: 1; stroke-dasharray: none; stroke-linecap: butt; stroke-linejoin: miter; stroke-miterlimit: 10; fill: #000009; fill-rule: nonzero; opacity: 1;" transform=" matrix(1 0 0 1 0 0) " stroke-linecap="round" />
  <path d="M 82.52 331.32 h 346.963 V 139.035 c 0 -3.499 -2.909 -6.408 -6.405 -6.408 H 88.928 c -3.499 0 -6.405 2.909 -6.405 6.408 V 331.32 H 82.52 z" style="stroke: none; stroke-width: 1; stroke-dasharray: none; stroke-linecap: butt; stroke-linejoin: miter; stroke-miterlimit: 10; fill: #0066c0; fill-rule: nonzero; opacity: 1;" transform=" matrix(1 0 0 1 0 0) " stroke-linecap="round" />
  <path d="M 443.036 344.875 v 21.829 c 0 10.98 -9.899 19.961 -22.004 19.961 H 90.968 c -12.103 0 -22.002 -8.981 -22.002 -19.961 v -21.829 H 443.036 z" style="stroke: none; stroke-width: 1; stroke-dasharray: none; stroke-linecap: butt; stroke-linejoin: miter; stroke-miterlimit: 10; fill: #000009; fill-rule: nonzero; opacity: 1;" transform=" matrix(1 0 0 1 0 0) " stroke-linecap="round" />
  <path d="M 257.151 170.102 c 20.137 0 38.372 8.163 51.568 21.359 c 13.196 13.196 21.359 31.431 21.359 51.568 c 0 20.139 -8.163 38.372 -21.359 51.568 c -13.194 13.196 -31.431 21.359 -51.568 21.359 c -20.139 0 -38.375 -8.163 -51.571 -21.359 c -13.194 -13.196 -21.359 -31.431 -21.359 -51.568 c 0 -20.139 8.163 -38.372 21.359 -51.568 C 218.777 178.267 237.012 170.102 257.151 170.102 z M 314.225 280.724 L 314.225 280.724 c 0.407 0.22 0.687 0.59 0.803 1.005 c 7.121 -10.634 11.394 -23.337 11.72 -37.018 h -27.597 c -0.218 9.999 -2.201 19.972 -5.952 29.309 C 301.632 275.625 308.94 277.858 314.225 280.724 z M 313.567 283.83 L 313.567 283.83 c -0.31 0.024 -0.627 -0.037 -0.921 -0.197 c -5.157 -2.796 -12.388 -4.963 -20.772 -6.51 c -0.755 1.673 -1.569 3.321 -2.439 4.947 c -6.56 12.202 -16.436 22.891 -29.616 30.524 c 18.164 -0.685 34.548 -8.328 46.561 -20.339 c 2.612 -2.613 5.015 -5.43 7.187 -8.428 V 283.83 z M 254.484 312.597 L 254.484 312.597 c -13.181 -7.633 -23.059 -18.322 -29.616 -30.524 c -0.868 -1.616 -1.676 -3.258 -2.429 -4.926 c -8.37 1.545 -15.604 3.706 -20.795 6.487 c -0.291 0.155 -0.606 0.212 -0.91 0.189 c 2.174 3.001 4.58 5.818 7.192 8.433 c 12.013 12.013 28.399 19.654 46.561 20.339 L 254.484 312.597 z M 199.28 281.734 L 199.28 281.734 c 0.115 -0.42 0.396 -0.792 0.811 -1.012 c 5.317 -2.849 12.617 -5.073 21.026 -6.676 c -3.761 -9.348 -5.747 -19.329 -5.965 -29.338 h -27.597 c 0.323 13.684 4.598 26.39 11.725 37.024 V 281.734 z M 187.555 241.398 L 187.555 241.398 h 27.589 c 0.191 -10.825 2.458 -21.611 6.794 -31.591 c -8.711 -1.608 -16.284 -3.866 -21.766 -6.786 c -7.67 10.904 -12.291 24.111 -12.619 38.377 H 187.555 z M 202.158 200.335 L 202.158 200.335 c 5.346 2.752 12.722 4.879 21.204 6.384 c 0.522 -1.075 1.07 -2.143 1.642 -3.192 c 6.558 -12.047 16.373 -22.571 29.451 -30.068 c -18.154 0.692 -34.524 8.333 -46.532 20.341 C 205.869 195.857 203.944 198.037 202.158 200.335 z M 259.848 173.459 L 259.848 173.459 c 13.078 7.494 22.896 18.02 29.451 30.068 c 0.577 1.06 1.128 2.133 1.655 3.213 c 8.504 -1.503 15.877 -3.641 21.189 -6.408 c -1.784 -2.295 -3.709 -4.477 -5.765 -6.534 c -12.008 -12.008 -28.378 -19.649 -46.532 -20.341 L 259.848 173.459 z M 314.134 203.026 L 314.134 203.026 c -5.448 2.933 -13.021 5.204 -21.758 6.809 c 4.333 9.973 6.592 20.751 6.783 31.563 h 27.589 C 326.42 227.134 321.801 213.93 314.134 203.026 z M 258.807 176.675 L 258.807 176.675 v 32.756 c 9.973 -0.066 19.872 -0.776 28.743 -2.13 c -0.372 -0.74 -0.755 -1.472 -1.149 -2.198 C 280.229 193.761 271.03 183.828 258.807 176.675 z M 258.807 212.744 L 258.807 212.744 v 28.651 h 37.055 c -0.194 -10.634 -2.474 -21.225 -6.836 -30.988 c -9.317 1.487 -19.743 2.266 -30.217 2.337 H 258.807 z M 258.807 244.708 L 258.807 244.708 v 26.246 c 10.794 0.071 21.54 0.894 31.067 2.473 c 3.764 -9.131 5.758 -18.909 5.98 -28.719 H 258.807 z M 258.807 274.264 L 258.807 274.264 v 35.101 c 12.302 -7.284 21.545 -17.372 27.72 -28.861 c 0.7 -1.301 1.359 -2.623 1.98 -3.958 c -9.115 -1.453 -19.371 -2.211 -29.703 -2.282 H 258.807 z M 255.496 309.365 L 255.496 309.365 v -35.101 c -10.319 0.079 -20.57 0.847 -29.69 2.303 c 0.616 1.327 1.275 2.644 1.97 3.937 C 233.954 291.993 243.194 302.084 255.496 309.365 z M 255.496 270.956 L 255.496 270.956 v -26.246 h -37.045 c 0.22 9.818 2.219 19.61 5.991 28.745 c 9.537 -1.584 20.276 -2.418 31.056 -2.5 H 255.496 z M 255.496 241.398 L 255.496 241.398 v -28.654 c -10.461 -0.081 -20.882 -0.868 -30.204 -2.361 c -4.373 9.768 -6.657 20.37 -6.849 31.014 H 255.496 z M 255.496 209.431 L 255.496 209.431 v -32.753 c -12.223 7.153 -21.422 17.086 -27.594 28.428 c -0.391 0.719 -0.769 1.445 -1.138 2.174 c 8.879 1.359 18.775 2.077 28.732 2.153 V 209.431 z" style="stroke: none; stroke-width: 1; stroke-dasharray: none; stroke-linecap: butt; stroke-linejoin: miter; stroke-miterlimit: 10; fill: #000009; fill-rule: nonzero; opacity: 1;" transform=" matrix(1 0 0 1 0 0) " stroke-linecap="round" />
  <path d="M 6.14 78.092 h 240.091 v 154.052 H 6.14 V 78.092 z" style="stroke: none; stroke-width: 1; stroke-dasharray: none; stroke-linecap: butt; stroke-linejoin: miter; stroke-miterlimit: 10; fill: #000009; fill-rule: nonzero; opacity: 1;" transform=" matrix(1 0 0 1 0 0) " stroke-linecap="round" />
  <path d="M 460.138 307.959 h 14.859 V 169.412 h -14.859 V 307.959 z" style="stroke: none; stroke-width: 1; stroke-dasharray: none; stroke-linecap: butt; stroke-linejoin: miter; stroke-miterlimit: 10; fill: #0066c5; fill-rule: nonzero; opacity: 1;" transform=" matrix(1 0 0 1 0 0) " stroke-linecap="round" />
  <path d="M 467.577 337.473 l 7.42 -29.514 h -14.857 L 467.577 337.473 z" style="stroke: none; stroke-width: 1; stroke-dasharray: none; stroke-linecap: butt; stroke-linejoin: miter; stroke-miterlimit: 10; fill: #000009; fill-rule: nonzero; opacity: 1;" transform=" matrix(1 0 0 1 0 0) " stroke-linecap="round" />
  <path d="M 463.189 155.893 h 8.758 c 2.408 0 4.378 2.321 4.378 5.157 v 64.41 h -17.519 v -64.41 c 0 -2.835 1.97 -5.157 4.38 -5.157 H 463.189 z" style="stroke: none; stroke-width: 1; stroke-dasharray: none; stroke-linecap: butt; stroke-linejoin: miter; stroke-miterlimit: 10; fill: #000009; fill-rule: nonzero; opacity: 1;" transform=" matrix(1 0 0 1 0 0) " stroke-linecap="round" />
  <path d="M 467.273 339.606 h 0.616 l 2.471 -13.199 h -5.542 l 2.452 13.199 H 467.273 z" style="stroke: none; stroke-width: 1; stroke-dasharray: none; stroke-linecap: butt; stroke-linejoin: miter; stroke-miterlimit: 10; fill: #000009; fill-rule: nonzero; opacity: 1;" transform=" matrix(1 0 0 1 0 0) " stroke-linecap="round" />
  <path d="M 458.813 167.009 l 21.409 0.165 l 1.348 0.01 v 1.576 v 47.975 v 0.49 l -0.249 0.42 l -2.028 3.415 c -1.039 1.584 -3.208 0.367 -2.209 -1.818 l 1.781 -2.998 v -45.905 l -20.063 -0.155 l 0.01 -3.174 V 167.009 z" style="stroke: none; stroke-width: 1; stroke-dasharray: none; stroke-linecap: butt; stroke-linejoin: miter; stroke-miterlimit: 10; fill: #FF5B61; fill-rule: nonzero; opacity: 1;" transform=" matrix(1 0 0 1 0 0) " stroke-linecap="round" />
  <path d="M 242.394 78.092 H 126.19 v 148.105 h 116.204 V 78.092 z" style="stroke: none; stroke-width: 1; stroke-dasharray: none; stroke-linecap: butt; stroke-linejoin: miter; stroke-miterlimit: 10; fill: #DFE1E3; fill-rule: nonzero; opacity: 1;" transform=" matrix(1 0 0 1 0 0) " stroke-linecap="round" />
  <path d="M 235.48 78.092 c -35.515 0 -69.439 -15.536 -106.552 0 v 138.733 H 235.48 V 78.092 z" style="stroke: none; stroke-width: 1; stroke-dasharray: none; stroke-linecap: butt; stroke-linejoin: miter; stroke-miterlimit: 10; fill: #000009; fill-rule: nonzero; opacity: 1;" transform=" matrix(1 0 0 1 0 0) " stroke-linecap="round" />
  <path d="M 9.981 78.092 h 116.207 v 148.105 H 9.981 V 78.092 z" style="stroke: none; stroke-width: 1; stroke-dasharray: none; stroke-linecap: butt; stroke-linejoin: miter; stroke-miterlimit: 10; fill: #DFE1E3; fill-rule: nonzero; opacity: 1;" transform=" matrix(1 0 0 1 0 0) " stroke-linecap="round" />
  <path d="M 16.892 78.092 c 36.428 0 89.08 -15.266 109.295 0 v 138.733 H 16.892 V 78.092 z" style="stroke: none; stroke-width: 1; stroke-dasharray: none; stroke-linecap: butt; stroke-linejoin: miter; stroke-miterlimit: 10; fill: #000009; fill-rule: nonzero; opacity: 1;" transform=" matrix(1 0 0 1 0 0) " stroke-linecap="round" />
  <path d="M 26.233 85.772 h 58.354 v 8.019 H 26.233 V 85.772 z" style="stroke: none; stroke-width: 1; stroke-dasharray: none; stroke-linecap: butt; stroke-linejoin: miter; stroke-miterlimit: 10; fill: #0066c5; fill-rule: nonzero; opacity: 1;" transform=" matrix(1 0 0 1 0 0) " stroke-linecap="round" />
  <path d="M 26.233 143.187 h 84.361 v 2.759 H 26.233 V 143.187 z M 138.652 143.187 L 138.652 143.187 h 84.364 v 2.759 h -84.364 V 143.187 z M 138.652 106.804 L 138.652 106.804 h 84.364 v 2.759 h -84.364 V 106.804 z M 138.652 134.623 L 138.652 134.623 h 36.94 v 2.757 h -36.94 V 134.623 z M 138.652 129.057 L 138.652 129.057 h 84.364 v 2.759 h -84.364 V 129.057 z M 138.652 123.494 L 138.652 123.494 h 84.364 v 2.759 h -84.364 V 123.494 z M 138.652 117.93 L 138.652 117.93 h 36.94 v 2.759 h -36.94 V 117.93 z M 138.652 112.367 L 138.652 112.367 h 84.364 v 2.759 h -84.364 V 112.367 z M 138.652 171.002 L 138.652 171.002 h 29.034 v 2.759 h -29.034 V 171.002 z M 138.652 165.441 L 138.652 165.441 h 84.364 v 2.757 h -84.364 V 165.441 z M 138.652 159.877 L 138.652 159.877 h 84.364 v 2.757 h -84.364 V 159.877 z M 138.652 154.311 L 138.652 154.311 h 84.364 v 2.759 h -84.364 V 154.311 z M 138.652 148.748 L 138.652 148.748 h 84.364 v 2.757 h -84.364 V 148.748 z M 26.233 106.801 L 26.233 106.801 h 84.361 v 2.759 H 26.233 V 106.801 z M 26.233 134.62 L 26.233 134.62 h 36.94 v 2.757 h -36.94 V 134.62 z M 26.233 129.054 L 26.233 129.054 h 84.361 v 2.759 H 26.233 V 129.054 z M 26.233 123.491 L 26.233 123.491 h 84.361 v 2.759 H 26.233 V 123.491 z M 26.233 117.928 L 26.233 117.928 h 84.361 v 2.759 H 26.233 V 117.928 z M 26.233 112.364 L 26.233 112.364 h 84.361 v 2.759 H 26.233 V 112.364 z M 26.233 170.999 L 26.233 170.999 h 29.034 v 2.759 H 26.233 V 170.999 z M 26.233 165.438 L 26.233 165.438 h 84.361 v 2.757 H 26.233 V 165.438 z M 26.233 159.875 L 26.233 159.875 h 84.361 v 2.757 H 26.233 V 159.875 z M 26.233 154.309 L 26.233 154.309 h 84.361 v 2.759 H 26.233 V 154.309 z M 26.233 148.745 L 26.233 148.745 h 84.361 v 2.757 H 26.233 V 148.745 z" style="stroke: none; stroke-width: 1; stroke-dasharray: none; stroke-linecap: butt; stroke-linejoin: miter; stroke-miterlimit: 10; fill: #5e5e5e; fill-rule: nonzero; opacity: 1;" transform=" matrix(1 0 0 1 0 0) " stroke-linecap="round" />
  <path d="M 361.437 46.107 l 75.503 36.415 c 3.992 3.045 2.833 21.847 2.35 25.346 c -0.485 3.502 -2.867 2.274 -5.49 -0.454 c -2.623 -2.728 5.582 -18.621 -1.112 -21.524 l -83.425 -36.184 c 0.818 -1.492 2.067 -3.019 3.525 -3.494 c 2.096 -0.685 4.462 -0.858 8.648 -0.102 V 46.107 z" style="stroke: none; stroke-width: 1; stroke-dasharray: none; stroke-linecap: butt; stroke-linejoin: miter; stroke-miterlimit: 10; fill: #5e5e5e; fill-rule: nonzero; opacity: 1;" transform=" matrix(1 0 0 1 0 0) " stroke-linecap="round" />
  <path d="M 461.557 80.319 l -82 -17.401 c -5.02 -0.034 -15.609 15.541 -17.37 18.608 c -1.757 3.064 0.876 3.552 4.622 3.001 c 3.746 -0.551 6.98 -18.143 14.054 -16.344 l 88.122 22.429 c 0.268 -1.679 0.212 -3.651 -0.651 -4.918 c -1.235 -1.823 -3.003 -3.413 -6.775 -5.375 H 461.557 z" style="stroke: none; stroke-width: 1; stroke-dasharray: none; stroke-linecap: butt; stroke-linejoin: miter; stroke-miterlimit: 10; fill: #5e5e5e; fill-rule: nonzero; opacity: 1;" transform=" matrix(1 0 0 1 0 0) " stroke-linecap="round" />
  <path d="M 467.572 94.738 c -0.832 1.49 -1.652 2.988 -2.468 4.459 c -1.527 2.744 -3.045 5.493 -4.559 8.244 c -6.29 11.442 -28.638 6.715 -36.837 -0.071 c -0.357 -0.294 -0.692 -0.616 -1.005 -0.957 c -2.028 -2.222 -3.19 -5.361 -3.885 -8.244 c -0.839 -3.489 -1.144 -7.166 -1.235 -10.749 c -0.058 -2.232 0.092 -4.719 -0.029 -6.959 c 0.079 -0.349 0.165 -0.692 0.257 -1.026 l 14.878 6.455 c 6.697 2.904 -1.511 18.794 1.112 21.522 c 2.623 2.731 5.005 3.955 5.49 0.454 c 0.485 -3.499 1.642 -22.301 -2.353 -25.346 l -0.294 -0.142 l 32.339 8.234 c -0.21 1.369 -0.674 2.807 -1.409 4.126 H 467.572 z M 422.01 71.923 L 422.01 71.923 l 39.542 8.391 c -10.547 -5.49 -29.488 -9.642 -37.207 -10.169 C 423.581 70.593 422.786 71.175 422.01 71.923 z M 347.85 53.829 L 347.85 53.829 c -0.252 1.687 -0.522 3.373 -0.774 5.036 c -0.475 3.106 -0.952 6.209 -1.443 9.312 c -2.028 12.9 18.542 22.836 29.181 22.487 c 0.464 -0.013 0.923 -0.066 1.38 -0.144 c 2.964 -0.514 5.807 -2.287 8.118 -4.144 c 2.796 -2.245 5.291 -4.965 7.557 -7.743 c 1.411 -1.731 2.817 -3.79 4.278 -5.487 c 0.155 -0.325 0.294 -0.651 0.428 -0.968 l -15.712 -4 c -7.074 -1.799 -10.306 15.79 -14.054 16.344 c -3.746 0.551 -6.379 0.063 -4.622 -3.001 c 1.76 -3.064 12.349 -18.642 17.372 -18.608 l 0.323 0.068 l -30.616 -13.278 c -0.674 1.212 -1.186 2.633 -1.411 4.129 L 347.85 53.829 z M 397.844 63.666 L 397.844 63.666 l -36.41 -17.561 c 11.704 2.114 29.223 10.421 35.652 14.728 C 397.414 61.654 397.689 62.598 397.844 63.666 z" style="stroke: none; stroke-width: 1; stroke-dasharray: none; stroke-linecap: butt; stroke-linejoin: miter; stroke-miterlimit: 10; fill: #ECF0F1; fill-rule: nonzero; opacity: 1;" transform=" matrix(1 0 0 1 0 0) " stroke-linecap="round" />
  <path d="M 348.023 37.464 c 9.162 0.194 47.324 12.402 51.219 16.764 c 0.433 0.485 9.047 6.19 9.036 6.206 l 3.638 1.54 l 3.819 1.007 c 0.005 -0.018 10.306 0.74 10.946 0.622 c 5.734 -1.062 43.172 12.548 50.7 18.033 c 2.109 0.837 4.255 1.794 4.205 2.201 c 0.252 1.044 -2.631 7.449 -2.922 7.659 c -0.231 0.081 -1.272 0.071 -2.883 -0.003 c -0.351 0.315 -0.721 0.75 -1.086 1.348 c -1.513 2.481 -7.536 13.383 -9.584 17.112 c -8.074 14.686 -33.96 10.35 -44.733 1.432 c -9.726 -8.047 -7.746 -27.604 -8.081 -31.337 c -0.066 -0.734 0.029 -1.844 0.226 -3.153 c -1.437 -1.663 -3.276 -3.449 -4.533 -3.434 c -0.984 -0.784 -3.533 -0.493 -5.687 -0.058 c -0.648 1.154 -1.254 2.091 -1.752 2.631 c -2.547 2.749 -12.95 19.426 -25.566 19.84 c -13.978 0.459 -37.105 -11.95 -34.503 -28.509 c 0.661 -4.205 2.571 -16.509 2.891 -19.4 c 0.081 -0.729 0.081 -1.338 0.037 -1.831 c -1.12 -0.797 -1.818 -1.332 -1.938 -1.521 c -0.102 -0.346 1.537 -7.174 2.374 -7.845 c 0.194 -0.328 2.159 0.123 4.173 0.69 L 348.023 37.464 z M 347.852 53.829 L 347.852 53.829 c -0.252 1.689 -0.522 3.376 -0.774 5.039 c -0.475 3.106 -0.952 6.209 -1.44 9.312 c -2.03 12.9 18.539 22.839 29.178 22.487 c 0.464 -0.013 0.923 -0.066 1.38 -0.144 c 2.964 -0.514 5.807 -2.287 8.118 -4.142 c 2.799 -2.248 5.291 -4.968 7.557 -7.746 c 1.411 -1.731 2.817 -3.788 4.278 -5.49 c 2.542 -5.437 2.038 -9.574 0.942 -12.31 c -8.611 -5.773 -37.147 -18.728 -44.906 -14.335 c -1.973 1.117 -3.83 4.05 -4.333 7.331 V 53.829 z M 467.574 94.738 L 467.574 94.738 c 1.611 -2.901 1.936 -6.358 1.06 -8.446 c -3.449 -8.223 -33.944 -15.439 -44.289 -16.145 c -2.542 1.495 -5.472 4.456 -6.791 10.314 c 0.118 2.237 -0.029 4.727 0.026 6.959 c 0.092 3.583 0.396 7.263 1.235 10.749 c 0.695 2.883 1.857 6.022 3.885 8.244 c 0.312 0.341 0.648 0.664 1.005 0.957 c 8.199 6.786 30.547 11.515 36.837 0.071 c 1.513 -2.752 3.032 -5.5 4.559 -8.244 c 0.818 -1.474 1.639 -2.969 2.471 -4.459 H 467.574 z" style="stroke: none; stroke-width: 1; stroke-dasharray: none; stroke-linecap: butt; stroke-linejoin: miter; stroke-miterlimit: 10; fill: #000009; fill-rule: nonzero; opacity: 1;" transform=" matrix(1 0 0 1 0 0) " stroke-linecap="round" />
</g>
  <g transform="translate(418.86 90.95) scale(1.53 0.81)">
   <text font-family="Grand Hotel" font-size="40" font-weight="normal" style="stroke: none; stroke-width: 1; stroke-dasharray: none; stroke-linecap: butt; stroke-linejoin: miter; stroke-miterlimit: 10; fill: #000000; fill-rule: nonzero; opacity: 1;" ><tspan x="-25.65" y="8.98" style="stroke: none; stroke-width: 0; stroke-dasharray: none; stroke-linecap: butt; stroke-linejoin: miter; stroke-miterlimit: 4; fill: #000000; fill-rule: ; opacity: 1;">g</tspan><tspan x="-11.59" y="8.98" style="stroke: none; stroke-width: 0; stroke-dasharray: none; stroke-linecap: butt; stroke-linejoin: miter; stroke-miterlimit: 4; fill: #000000; fill-rule: ; opacity: 1;">i</tspan><tspan x="-4.68" y="8.98" style="stroke: none; stroke-width: 0; stroke-dasharray: none; stroke-linecap: butt; stroke-linejoin: miter; stroke-miterlimit: 4; fill: #000000; fill-rule: ; opacity: 1;">l</tspan><tspan x="4.11" y="8.98" style="stroke: none; stroke-width: 0; stroke-dasharray: none; stroke-linecap: butt; stroke-linejoin: miter; stroke-miterlimit: 4; fill: #000000; fill-rule: ; opacity: 1;">l</tspan><tspan x="12.9" y="8.98" style="stroke: none; stroke-width: 0; stroke-dasharray: none; stroke-linecap: butt; stroke-linejoin: miter; stroke-miterlimit: 4; fill: #000000; fill-rule: ; opacity: 1;">s</tspan></text>
 </g>
  <g transform="translate(359.62 120.88) scale(0.31 0.37)">
   <text font-family="Ikaros" font-size="40" font-weight="bold" style="stroke: none; stroke-width: 1; stroke-dasharray: none; stroke-linecap: butt; stroke-linejoin: miter; stroke-miterlimit: 10; fill: #000000; fill-rule: nonzero; opacity: 1;" ><tspan x="-373" y="8.98" style="stroke: none; stroke-width: 0; stroke-dasharray: none; stroke-linecap: butt; stroke-linejoin: miter; stroke-miterlimit: 4; fill: #000000; fill-rule: ; opacity: 1;">R</tspan><tspan x="-350.48" y="8.98" style="stroke: none; stroke-width: 0; stroke-dasharray: none; stroke-linecap: butt; stroke-linejoin: miter; stroke-miterlimit: 4; fill: #000000; fill-rule: ; opacity: 1;">I</tspan><tspan x="-343.64" y="8.98" style="stroke: none; stroke-width: 0; stroke-dasharray: none; stroke-linecap: butt; stroke-linejoin: miter; stroke-miterlimit: 4; fill: #000000; fill-rule: ; opacity: 1;">S</tspan><tspan x="-321.64" y="8.98" style="stroke: none; stroke-width: 0; stroke-dasharray: none; stroke-linecap: butt; stroke-linejoin: miter; stroke-miterlimit: 4; fill: #000000; fill-rule: ; opacity: 1;">E</tspan><tspan x="-300.84" y="8.98" style="stroke: none; stroke-width: 0; stroke-dasharray: none; stroke-linecap: butt; stroke-linejoin: miter; stroke-miterlimit: 4; fill: #000000; fill-rule: ; opacity: 1;"> </tspan><tspan x="-280.84" y="8.98" style="stroke: none; stroke-width: 0; stroke-dasharray: none; stroke-linecap: butt; stroke-linejoin: miter; stroke-miterlimit: 4; fill: #000000; fill-rule: ; opacity: 1;">T</tspan><tspan x="-254.88" y="8.98" style="stroke: none; stroke-width: 0; stroke-dasharray: none; stroke-linecap: butt; stroke-linejoin: miter; stroke-miterlimit: 4; fill: #000000; fill-rule: ; opacity: 1;">O</tspan><tspan x="-224.48" y="8.98" style="stroke: none; stroke-width: 0; stroke-dasharray: none; stroke-linecap: butt; stroke-linejoin: miter; stroke-miterlimit: 4; fill: #000000; fill-rule: ; opacity: 1;">G</tspan><tspan x="-195.68" y="8.98" style="stroke: none; stroke-width: 0; stroke-dasharray: none; stroke-linecap: butt; stroke-linejoin: miter; stroke-miterlimit: 4; fill: #000000; fill-rule: ; opacity: 1;">E</tspan><tspan x="-174.88" y="8.98" style="stroke: none; stroke-width: 0; stroke-dasharray: none; stroke-linecap: butt; stroke-linejoin: miter; stroke-miterlimit: 4; fill: #000000; fill-rule: ; opacity: 1;">T</tspan><tspan x="-148.92" y="8.98" style="stroke: none; stroke-width: 0; stroke-dasharray: none; stroke-linecap: butt; stroke-linejoin: miter; stroke-miterlimit: 4; fill: #000000; fill-rule: ; opacity: 1;">H</tspan><tspan x="-124.44" y="8.98" style="stroke: none; stroke-width: 0; stroke-dasharray: none; stroke-linecap: butt; stroke-linejoin: miter; stroke-miterlimit: 4; fill: #000000; fill-rule: ; opacity: 1;">E</tspan><tspan x="-103.64" y="8.98" style="stroke: none; stroke-width: 0; stroke-dasharray: none; stroke-linecap: butt; stroke-linejoin: miter; stroke-miterlimit: 4; fill: #000000; fill-rule: ; opacity: 1;">R</tspan><tspan x="-81.12" y="8.98" style="stroke: none; stroke-width: 0; stroke-dasharray: none; stroke-linecap: butt; stroke-linejoin: miter; stroke-miterlimit: 4; fill: #000000; fill-rule: ; opacity: 1;"> </tspan><tspan x="-61.12" y="8.98" style="stroke: none; stroke-width: 0; stroke-dasharray: none; stroke-linecap: butt; stroke-linejoin: miter; stroke-miterlimit: 4; fill: #000000; fill-rule: ; opacity: 1;">T</tspan><tspan x="-35.16" y="8.98" style="stroke: none; stroke-width: 0; stroke-dasharray: none; stroke-linecap: butt; stroke-linejoin: miter; stroke-miterlimit: 4; fill: #000000; fill-rule: ; opacity: 1;">O</tspan><tspan x="-4.76" y="8.98" style="stroke: none; stroke-width: 0; stroke-dasharray: none; stroke-linecap: butt; stroke-linejoin: miter; stroke-miterlimit: 4; fill: #000000; fill-rule: ; opacity: 1;"> </tspan><tspan x="15.24" y="8.98" style="stroke: none; stroke-width: 0; stroke-dasharray: none; stroke-linecap: butt; stroke-linejoin: miter; stroke-miterlimit: 4; fill: #000000; fill-rule: ; opacity: 1;">M</tspan><tspan x="44" y="8.98" style="stroke: none; stroke-width: 0; stroke-dasharray: none; stroke-linecap: butt; stroke-linejoin: miter; stroke-miterlimit: 4; fill: #000000; fill-rule: ; opacity: 1;">A</tspan><tspan x="71.84" y="8.98" style="stroke: none; stroke-width: 0; stroke-dasharray: none; stroke-linecap: butt; stroke-linejoin: miter; stroke-miterlimit: 4; fill: #000000; fill-rule: ; opacity: 1;">K</tspan><tspan x="95.56" y="8.98" style="stroke: none; stroke-width: 0; stroke-dasharray: none; stroke-linecap: butt; stroke-linejoin: miter; stroke-miterlimit: 4; fill: #000000; fill-rule: ; opacity: 1;">E</tspan><tspan x="116.36" y="8.98" style="stroke: none; stroke-width: 0; stroke-dasharray: none; stroke-linecap: butt; stroke-linejoin: miter; stroke-miterlimit: 4; fill: #000000; fill-rule: ; opacity: 1;"> </tspan><tspan x="136.36" y="8.98" style="stroke: none; stroke-width: 0; stroke-dasharray: none; stroke-linecap: butt; stroke-linejoin: miter; stroke-miterlimit: 4; fill: #000000; fill-rule: ; opacity: 1;">I</tspan><tspan x="143.2" y="8.98" style="stroke: none; stroke-width: 0; stroke-dasharray: none; stroke-linecap: butt; stroke-linejoin: miter; stroke-miterlimit: 4; fill: #000000; fill-rule: ; opacity: 1;">N</tspan><tspan x="167.16" y="8.98" style="stroke: none; stroke-width: 0; stroke-dasharray: none; stroke-linecap: butt; stroke-linejoin: miter; stroke-miterlimit: 4; fill: #000000; fill-rule: ; opacity: 1;">D</tspan><tspan x="193.04" y="8.98" style="stroke: none; stroke-width: 0; stroke-dasharray: none; stroke-linecap: butt; stroke-linejoin: miter; stroke-miterlimit: 4; fill: #000000; fill-rule: ; opacity: 1;">I</tspan><tspan x="199.88" y="8.98" style="stroke: none; stroke-width: 0; stroke-dasharray: none; stroke-linecap: butt; stroke-linejoin: miter; stroke-miterlimit: 4; fill: #000000; fill-rule: ; opacity: 1;">A</tspan><tspan x="227.72" y="8.98" style="stroke: none; stroke-width: 0; stroke-dasharray: none; stroke-linecap: butt; stroke-linejoin: miter; stroke-miterlimit: 4; fill: #000000; fill-rule: ; opacity: 1;"> </tspan><tspan x="247.72" y="8.98" style="stroke: none; stroke-width: 0; stroke-dasharray: none; stroke-linecap: butt; stroke-linejoin: miter; stroke-miterlimit: 4; fill: #000000; fill-rule: ; opacity: 1;">P</tspan><tspan x="269.88" y="8.98" style="stroke: none; stroke-width: 0; stroke-dasharray: none; stroke-linecap: butt; stroke-linejoin: miter; stroke-miterlimit: 4; fill: #000000; fill-rule: ; opacity: 1;">R</tspan><tspan x="292.4" y="8.98" style="stroke: none; stroke-width: 0; stroke-dasharray: none; stroke-linecap: butt; stroke-linejoin: miter; stroke-miterlimit: 4; fill: #000000; fill-rule: ; opacity: 1;">O</tspan><tspan x="322.8" y="8.98" style="stroke: none; stroke-width: 0; stroke-dasharray: none; stroke-linecap: butt; stroke-linejoin: miter; stroke-miterlimit: 4; fill: #000000; fill-rule: ; opacity: 1;">U</tspan><tspan x="347.12" y="8.98" style="stroke: none; stroke-width: 0; stroke-dasharray: none; stroke-linecap: butt; stroke-linejoin: miter; stroke-miterlimit: 4; fill: #000000; fill-rule: ; opacity: 1;">D</tspan></text>
 </g>
</svg>